<svg width="48" height="48" viewBox="0 0 48 48" fill="none" xmlns="http://www.w3.org/2000/svg">
<path d="M31.8231 13.0149L21.8422 20.0646L5.2749 31.7544L7.23808 34.4423L23.511 23.5387L34.5808 16.1221L32.1453 12.7871L31.8231 13.0149Z" fill="url(#paint0_linear_3402_84836)"/>
<path d="M7.23828 8.47058L17.0186 21.8621L20.5146 19.3929L15.6656 12.7515H32.1196H32.196L32.1455 12.7871L34.581 16.1221L46.0003 8.47058H7.23828Z" fill="#8165FC"/>
<path d="M16.1772 34.9851L26.1581 27.9354L42.7254 16.2457L40.7622 13.5578L24.4893 24.4614L13.4194 31.8779L15.855 35.2129L16.1772 34.9851Z" fill="url(#paint1_linear_3402_84836)"/>
<path d="M40.7621 39.5294L30.9811 26.1379L27.4857 28.6071L32.3348 35.2485H15.8807H15.8044L15.8548 35.2129L13.4193 31.8779L2 39.5294H40.7621Z" fill="#8165FC"/>
<defs>
<linearGradient id="paint0_linear_3402_84836" x1="33.4148" y1="14.443" x2="6.42019" y2="32.4849" gradientUnits="userSpaceOnUse">
<stop stop-color="#8165FC"/>
<stop offset="1" stop-color="#8165FC" stop-opacity="0"/>
</linearGradient>
<linearGradient id="paint1_linear_3402_84836" x1="14.5854" y1="33.5577" x2="41.5801" y2="15.5151" gradientUnits="userSpaceOnUse">
<stop stop-color="#8165FC"/>
<stop offset="1" stop-color="#8165FC" stop-opacity="0"/>
</linearGradient>
</defs>
</svg>
