<svg width="116" height="40" viewBox="0 0 116 40" fill="none" xmlns="http://www.w3.org/2000/svg">
<path d="M18.6226 13.5088L12.7248 17.6745L2.93506 24.5821L4.09512 26.1704L13.7109 19.7274L20.2522 15.3448L18.813 13.3742L18.6226 13.5088Z" fill="url(#paint0_linear_3402_84701)"/>
<path d="M4.09497 10.8235L9.87423 18.7367L11.9401 17.2776L9.07473 13.3532H18.7976H18.8427L18.8129 13.3742L20.2521 15.3448L26.9998 10.8235H4.09497Z" fill="#8165FC"/>
<path d="M9.37739 26.4912L15.2752 22.3254L25.0649 15.4179L23.9049 13.8296L14.2891 20.2726L7.7478 24.6551L9.18698 26.6258L9.37739 26.4912Z" fill="url(#paint1_linear_3402_84701)"/>
<path d="M23.9049 29.1765L18.1252 21.2633L16.0597 22.7224L18.9251 26.6468H9.20223H9.15712L9.18694 26.6258L7.74776 24.6552L1 29.1765H23.9049Z" fill="#8165FC"/>
<path d="M46.3543 27.1605C46.0674 26.4608 45.7338 25.744 45.354 25.0105C44.9742 24.2769 44.5394 23.5644 44.0502 22.8729C43.5605 22.1814 43.029 21.5657 42.4551 21.026C43.5211 20.6548 44.3632 20.0933 44.981 19.3417C45.5986 18.5901 45.9076 17.6148 45.9076 16.4156C45.9076 15.5544 45.7385 14.8029 45.4002 14.1611C45.062 13.5195 44.5842 12.9919 43.967 12.5779C43.3498 12.1643 42.6186 11.852 41.773 11.6407C40.9274 11.4298 39.9975 11.3241 38.9831 11.3241H32.8955V29.0449H36.6272V13.4539H38.7049C39.8701 13.4539 40.7398 13.7198 41.3144 14.2515C41.8887 14.7833 42.1759 15.5301 42.1759 16.492C42.1759 17.4539 41.8887 18.201 41.3144 18.7327C40.7398 19.2645 39.8701 19.5301 38.7049 19.5301H37.3093V21.6598H37.6155C38.2404 21.6598 38.8021 21.8158 39.3005 22.1277C39.7987 22.4397 40.2591 22.9074 40.6816 23.5314C41.1038 24.1553 41.4964 24.9268 41.8596 25.8457C42.223 26.7645 42.5816 27.8312 42.9364 29.0449H47.0383C46.8692 28.4884 46.6415 27.8602 46.3545 27.1604H46.3543V27.1605Z" fill="black"/>
<path d="M56.7945 16.1424C54.3884 15.1969 51.0945 15.6188 49.2741 17.5206C48.7001 18.1026 48.2568 18.7982 47.9445 19.608C47.6323 20.4175 47.4763 21.3117 47.4763 22.2898C47.4763 23.2851 47.6367 24.1956 47.9575 25.022C48.278 25.8486 48.738 26.5611 49.3374 27.1598C50.9573 28.7746 53.2919 29.25 55.6172 28.9689C57.117 28.7973 58.8352 28.3696 60.0103 27.3747V25.022C58.7172 25.9825 56.8779 26.7549 55.1739 26.7196C54.1052 26.7389 52.9816 26.4008 52.3001 25.7206C51.304 24.7898 50.6455 23.5392 50.6502 22.0393C50.6593 20.3322 51.4618 18.609 53.2554 18.2477C55.3854 17.7843 57.3472 19.0455 57.3771 21.3077H51.3326V23.0084C51.3338 23.0146 51.3349 23.0208 51.3363 23.027H60.6938V22.2928C60.7384 19.6033 59.3335 17.0969 56.7945 16.1424Z" fill="black"/>
<path d="M65.6047 29.0451H62.2637V12.6152L65.5991 10.5058L65.6047 29.0451Z" fill="black"/>
<path d="M86.7868 26.2883C86.3643 26.2883 86.0307 26.2209 85.7857 26.0858C85.5407 25.9508 85.3507 25.7857 85.2156 25.5915C85.0806 25.3972 84.9917 25.1904 84.9496 24.9708C84.9075 24.7512 84.8863 24.5568 84.8863 24.3879L84.8934 19.327H87.4264L88.4583 16.7657H84.8934V11.3241L81.5427 13.4335L81.543 24.7141C81.543 25.2037 81.602 25.706 81.7202 26.2211C81.8384 26.7362 82.0621 27.2006 82.3914 27.6141C82.7207 28.0278 83.1808 28.3699 83.7718 28.64C84.3626 28.9098 85.1395 29.0451 86.1025 29.0451C86.7275 29.0451 87.2594 28.9815 87.6986 28.855C88.1379 28.7283 88.5855 28.5468 89.0418 28.3103V25.549C88.366 26.042 87.6142 26.2883 86.7866 26.2883H86.7868Z" fill="black"/>
<path d="M76.74 16.7656L76.7123 16.8302L68.2729 34.7999H71.6242L80.0912 16.7656H76.74Z" fill="black"/>
<path d="M70.5033 16.7656H67.0564L71.5102 26.3306L73.2345 22.607L70.5033 16.7656Z" fill="black"/>
<path d="M112.698 28.9796V11.3831H115.911V28.9795H112.698V28.9796Z" fill="black"/>
<path d="M104.668 11.3831H100.511L94.4404 28.9795H97.9126L99.3294 24.728L99.5896 23.9469H105.573L105.832 24.728L105.921 24.9937L105.989 25.2004L107.242 28.9795H110.738L104.667 11.3831H104.668ZM104.634 21.1128H100.528L102.589 14.9461L104.634 21.1128Z" fill="black"/>
<defs>
<linearGradient id="paint0_linear_3402_84701" x1="19.5632" y1="14.3526" x2="3.61182" y2="25.0138" gradientUnits="userSpaceOnUse">
<stop stop-color="#8165FC"/>
<stop offset="1" stop-color="#8165FC" stop-opacity="0"/>
</linearGradient>
<linearGradient id="paint1_linear_3402_84701" x1="8.4368" y1="25.6477" x2="24.3882" y2="14.9862" gradientUnits="userSpaceOnUse">
<stop stop-color="#8165FC"/>
<stop offset="1" stop-color="#8165FC" stop-opacity="0"/>
</linearGradient>
</defs>
</svg>
